<svg xmlns="http://www.w3.org/2000/svg" width="64" height="64" viewBox="0 0 64 64" fill="none">
  <circle cx="32" cy="32" r="30" fill="#FEF2F2" stroke="#EF4444" stroke-width="2"/>
  <path d="M26 20H38C40.2091 20 42 21.7909 42 24V40C42 42.2091 40.2091 44 38 44H26C23.7909 44 22 42.2091 22 40V24C22 21.7909 23.7909 20 26 20Z" stroke="#EF4444" stroke-width="2"/>
  <path d="M26 26H38" stroke="#EF4444" stroke-width="2" stroke-linecap="round"/>
  <path d="M26 32H34" stroke="#EF4444" stroke-width="2" stroke-linecap="round"/>
  <path d="M26 38H30" stroke="#EF4444" stroke-width="2" stroke-linecap="round"/>
  <path d="M47 15L50 18" stroke="#9CA3AF" stroke-width="2" stroke-linecap="round"/>
  <path d="M14 44L17 47" stroke="#9CA3AF" stroke-width="2" stroke-linecap="round"/>
  <path d="M14 15L17 18" stroke="#9CA3AF" stroke-width="2" stroke-linecap="round"/>
  <path d="M47 44L50 47" stroke="#9CA3AF" stroke-width="2" stroke-linecap="round"/>
</svg> 