<svg xmlns="http://www.w3.org/2000/svg" width="64" height="64" viewBox="0 0 64 64" fill="none">
  <circle cx="32" cy="32" r="30" fill="#FEF9C3" stroke="#CA8A04" stroke-width="2"/>
  <rect x="27" y="18" width="10" height="10" rx="2" fill="none" stroke="#CA8A04" stroke-width="2"/>
  <rect x="40" y="36" width="10" height="10" rx="2" fill="none" stroke="#CA8A04" stroke-width="2"/>
  <rect x="14" y="36" width="10" height="10" rx="2" fill="none" stroke="#CA8A04" stroke-width="2"/>
  <path d="M32 28V36" stroke="#CA8A04" stroke-width="2" stroke-linecap="round"/>
  <path d="M32 36H40" stroke="#CA8A04" stroke-width="2" stroke-linecap="round"/>
  <path d="M32 36H24" stroke="#CA8A04" stroke-width="2" stroke-linecap="round"/>
  <path d="M14 30C14 28.8954 14.8954 28 16 28H20C21.1046 28 22 28.8954 22 30V30C22 31.1046 21.1046 32 20 32H16C14.8954 32 14 31.1046 14 30V30Z" fill="#FEF08A" stroke="#CA8A04" stroke-width="2"/>
  <path d="M42 30C42 28.8954 42.8954 28 44 28H48C49.1046 28 50 28.8954 50 30V30C50 31.1046 49.1046 32 48 32H44C42.8954 32 42 31.1046 42 30V30Z" fill="#FEF08A" stroke="#CA8A04" stroke-width="2"/>
  <path d="M27 30C27 28.8954 27.8954 28 29 28H35C36.1046 28 37 28.8954 37 30V30C37 31.1046 36.1046 32 35 32H29C27.8954 32 27 31.1046 27 30V30Z" fill="#FEF08A" stroke="#CA8A04" stroke-width="2"/>
</svg> 